<svg width="410" height="382" viewBox="0 0 410 382" fill="none" xmlns="http://www.w3.org/2000/svg">
<path fill-rule="evenodd" clip-rule="evenodd" d="M150.171 121.364C171.287 73.8555 238.714 73.8556 259.829 121.365L293.312 196.702L343.66 152.647C369.523 130.017 410 148.384 410 182.751V321.6C410 354.737 383.137 381.6 350 381.6L328 381.6L82.0001 381.6L60 381.6C26.8629 381.6 0 354.737 0 321.6V182.751C0 148.384 40.4769 130.017 66.3402 152.647L116.688 196.702L150.171 121.364Z" fill="#00FF6A"/>
<path fill-rule="evenodd" clip-rule="evenodd" d="M192.932 190.701C192.932 190.149 193.379 189.701 193.932 189.701H213.009C213.562 189.701 214.009 190.149 214.009 190.701V247.666V268.744H214.009V298.361C214.009 299.465 214.904 300.361 216.009 300.361H322.668C323.773 300.361 324.668 299.465 324.668 298.361V247.666L214.009 247.666H324.668V243.396C324.668 242.844 325.116 242.396 325.668 242.396H344.746C345.299 242.396 345.746 242.844 345.746 243.396L345.746 247.666V317.439C345.746 319.648 343.955 321.439 341.746 321.439H65.194C62.9848 321.439 61.194 319.648 61.194 317.439V274.013V247.666V238.127C61.194 237.575 61.6417 237.127 62.194 237.127H81.2719C81.8242 237.127 82.2719 237.575 82.2719 238.127V247.666H192.932V190.701ZM84.2719 300.361C83.1674 300.361 82.2719 299.465 82.2719 298.361V247.666H192.931V298.361C192.931 299.465 192.036 300.361 190.931 300.361H84.2719Z" fill="#005424"/>
<ellipse cx="52.7144" cy="52.7141" rx="52.7143" ry="29.2857" fill="#E4FFF0"/>
<ellipse cx="140.571" cy="49.7857" rx="87.8572" ry="49.7857" fill="#87FFBA"/>
<ellipse cx="216.715" cy="81.9998" rx="52.7143" ry="29.2857" fill="#DBFEEA"/>
</svg>
